<?xml version="1.0" encoding="UTF-8"?>
<svg width="104px" height="98px" viewBox="0 0 104 98" version="1.1" xmlns="http://www.w3.org/2000/svg" xmlns:xlink="http://www.w3.org/1999/xlink">
    <!-- Generator: Sketch 52.6 (67491) - http://www.bohemiancoding.com/sketch -->
    <title>PT icon new Copy 2</title>
    <desc>Created with Sketch.</desc>
    <g id="Page-1" stroke="none" stroke-width="1" fill="none" fill-rule="evenodd">
        <g id="PT-icon-new-Copy-2" fill="#33B199">
            <path d="M72.8617521,48.9612566 L63.2941066,63.3523299 L53.9345989,63.3523299 L62.2439311,48.9450478 L53.9345989,34.5684465 L63.2941066,34.5684465 L72.8617521,48.9612566 Z M57.2943792,48.9450478 L47.7546343,63.3523299 L38.3655521,63.3523299 L46.6748842,48.9612566 L38.3655521,34.5684465 L47.7546343,34.5684465 L57.2943792,48.9450478 Z" id="Fill-19-Copy"></path>
            <path d="M103.502156,48.9612566 L93.9345108,63.3523299 L84.5755612,63.3523299 L92.8848933,48.9450478 L84.5755612,34.5684465 L93.9345108,34.5684465 L103.502156,48.9612566 Z M87.9353415,48.9450478 L78.3961545,63.3523299 L69.0065143,63.3523299 L77.3158465,48.9612566 L69.0065143,34.5684465 L78.3961545,34.5684465 L87.9353415,48.9450478 Z" id="Fill-20-Copy"></path>
            <path d="M17.7752809,20.3804944 L41.8202247,20.3804944 C42.9247942,20.3804944 43.8202247,21.2759249 43.8202247,22.3804944 L43.8202247,76.8074607 C43.8202247,77.9120302 42.9247942,78.8074607 41.8202247,78.8074607 L17.7752809,78.8074607 C16.6707114,78.8074607 15.7752809,77.9120302 15.7752809,76.8074607 L15.7752809,22.3804944 C15.7752809,21.2759249 16.6707114,20.3804944 17.7752809,20.3804944 Z" id="Rectangle-Copy" transform="translate(29.797753, 49.593978) rotate(90.000000) translate(-29.797753, -49.593978) "></path>
            <path d="M38.2043346,0.515325843 L61.1215081,0.515325843 C62.0130268,0.515325843 62.336313,0.608151454 62.662239,0.782458546 C62.9881649,0.956765639 63.2439535,1.21255421 63.4182606,1.53848014 C63.5925676,1.86440607 63.6853933,2.1876923 63.6853933,3.07921104 L63.6853933,94.9402047 C63.6853933,95.8317234 63.5925676,96.1550097 63.4182606,96.4809356 C63.2439535,96.8068615 62.9881649,97.0626501 62.662239,97.2369572 C62.336313,97.4112643 62.0130268,97.5040899 61.1215081,97.5040899 L38.2043346,97.5040899 C37.3128159,97.5040899 36.9895297,97.4112643 36.6636037,97.2369572 C36.3376778,97.0626501 36.0818892,96.8068615 35.9075821,96.4809356 C35.733275,96.1550097 35.6404494,95.8317234 35.6404494,94.9402047 L35.6404494,3.07921104 C35.6404494,2.1876923 35.733275,1.86440607 35.9075821,1.53848014 C36.0818892,1.21255421 36.3376778,0.956765639 36.6636037,0.782458546 C36.9895297,0.608151454 37.3128159,0.515325843 38.2043346,0.515325843 Z" id="Rectangle"></path>
        </g>
    </g>
</svg>